inDegrees=yes
name=ik_lifting_orientations
DataType=double
version=3
OpenSimVersion=4.5-2024-01-10-34fd6af
endheader
time	pelvis_tilt	pelvis_list	pelvis_rotation	pelvis_tx	pelvis_ty	pelvis_tz	hip_flexion_r	hip_adduction_r	hip_rotation_r	knee_angle_r	knee_angle_r_beta	ankle_angle_r	subtalar_angle_r	mtp_angle_r	hip_flexion_l	hip_adduction_l	hip_rotation_l	knee_angle_l	knee_angle_l_beta	ankle_angle_l	subtalar_angle_l	mtp_angle_l	lumbar_extension	lumbar_bending	lumbar_rotation	arm_flex_r	arm_add_r	arm_rot_r	elbow_flex_r	pro_sup_r	wrist_flex_r	wrist_dev_r	arm_flex_l	arm_add_l	arm_rot_l	elbow_flex_l	pro_sup_l	wrist_flex_l	wrist_dev_l
0.02	-0.00684711770674807	0.01055971567412377	-87.68028560297972	0	0.9399999999999999	0	43.2625527426279	-10.64794438713888	0	55.74396557553701	0.9729157374114966	-5.183289497945892	0	0	43.2625527426279	-10.64794438713888	0	55.74396557553701	0.9729157374114966	-5.183289497945892	0	0	0.009595461785638984	0.01216358394833361	0.00144579170321883	-0.2320667444370117	-0.05992561605343142	0.001546147703093763	0.4818575900609884	48.15281753739417	0	0	0	-9.5210891604313	0	73.95898824253004	48.15281753739417	0	0
0.03	0.000275083592042487	-0.0009347983435769881	-87.67430087792819	0	0.9399999999999999	0	43.3379672513505	-10.5689089147917	0	55.89190142731006	0.9754977051066787	-5.156487704542205	0	0	43.3379672513505	-10.5689089147917	0	55.89190142731006	0.9754977051066787	-5.156487704542205	0	0	-0.0004985508932621272	0.00294005780008952	0.0001864942192858795	-0.2389483368477149	-0.0568569519648793	-0.005673034339665969	0.4872812209800892	47.82899890423477	0	0	0	-9.648629231681747	0	74.00416996038891	47.82899890423477	0	0
0.04	-0.03200948363537567	0.01356071251004435	-87.6700696045562	0	0.9399999999999999	0	43.3940665062512	-10.51335737537391	0	56.00264174985376	0.9774304883497867	-5.137962693001159	0	0	43.3940665062512	-10.51335737537391	0	56.00264174985376	0.9774304883497867	-5.137962693001159	0	0	0.03932371494947677	0.01968308847520823	-0.001026304659334309	-0.4864936287435192	-0.08359406028242367	-0.0150704975604966	0.93958366612221	47.59829510675915	0	0	0	-9.744906186040224	0	74.03778043486984	47.59829510675915	0	0
0.05	0.005987584357644207	0.02363412344295366	-87.67750072056913	0	0.9399999999999999	0	43.46670948998087	-10.44305189048169	0	56.1464779734464	0.979940904035113	-5.114693921478184	0	0	43.46670948998087	-10.44305189048169	0	56.1464779734464	0.979940904035113	-5.114693921478184	0	0	0.03582988521580018	-0.01322309735343213	0.008804004124151589	-0.2562973413424748	-0.04813575046991599	-0.01644230622190066	0.4945416459615102	47.30457201986757	0	0	0	-9.870267527020429	0	74.08130288651695	47.30457201986757	0	0
0.06	-1.013361908432887e-05	-0.001263213996110046	-87.67555416059122	0	0.9399999999999999	0	43.53202396926011	-10.39113891557489	0	56.27810018499652	0.9822381449954191	-5.098717483763643	0	0	43.53202396926011	-10.39113891557489	0	56.27810018499652	0.9822381449954191	-5.098717483763643	0	0	-0.0003900980893835984	0.001763199404110424	-0.000401812874021859	-0.239288755217191	-0.05593647965255123	-0.006293616567498665	0.4874517669692721	47.07603381899051	0	0	0	-9.987960363770027	0	74.12043720415276	47.07603381899051	0	0
0.07000000000000001	0.007269979791128261	0.01938246067514462	-87.64005814087427	0	0.9399999999999999	0	43.53217376549997	-10.3909998704536	0	56.27839997567695	0.9822433773298596	-5.098671733536166	0	0	43.53217376549997	-10.3909998704536	0	56.27839997567695	0.9822433773298596	-5.098671733536166	0	0	0.01402314208240523	-0.0200843003786657	-0.06971977985613954	-0.08053762085588896	-0.1760303339436027	-0.45464456590095	0.7669042398586161	47.07544859921118	0	7.743211429745812e-51	0	-9.988223085836422	0	74.12052695291577	47.07544859921118	0	7.743211429745812e-51
0.08	-0.003955512765213504	0.01568229689545336	-87.67539116433545	0	0.9399999999999999	0	43.56457931558059	-10.36465717908385	0	56.3436976854488	0.9833830373593899	-5.090444954517835	0	0	43.56457931558059	-10.36465717908385	0	56.3436976854488	0.9833830373593899	-5.090444954517835	0	0	0.03191529922909269	0.01221874815083846	0.01736558921698758	-0.1602320358795557	-0.2127718472169214	-0.519423631264246	0.8666574273862757	46.96043317647752	0	0	0	-10.04655018691872	0	74.13994315193986	46.96043317647752	0	0
0.09	0.001822985164588269	-0.0008819683787826692	-87.67392558934186	0	0.9399999999999999	0	43.59732713805826	-10.3392057853078	0	56.40999136178661	0.9845400802847362	-5.082632759525609	0	0	43.59732713805826	-10.3392057853078	0	56.40999136178661	0.9845400802847362	-5.082632759525609	0	0	-0.001465101293315006	-0.002043263878166965	-0.004870054418492782	-0.1032011150110322	-0.1930202287169397	-0.4922072683905743	0.7863529982606287	46.847932108218	0	0	0	-10.10603826287984	0	74.15956467708349	46.847932108218	0	0
0.1	-0.005792661504631438	0.001550530573792135	-87.67198031264104	0	0.9399999999999999	0	43.62474295623964	-10.31837142359473	0	56.46559776294416	0.9855105950701202	-5.076285055335115	0	0	43.62474295623964	-10.31837142359473	0	56.46559776294416	0.9855105950701202	-5.076285055335115	0	0	0.01830654929172697	0.0033141834638353	-0.00143739470068185	-0.1505159370416003	-0.1888076607063759	-0.4979575754953717	0.8383867776368826	46.75531791755107	0	0	0	-10.15612880175407	0	74.17599153455373	46.75531791755107	0	0
0.11	-0.01005124212184201	0.0177236317504826	-87.67552846033628	0	0.9399999999999999	0	43.65194654576922	-10.29858949113288	0	56.52095152019428	0.9864767003874845	-5.070361038679446	0	0	43.65194654576922	-10.29858949113288	0	56.52095152019428	0.9864767003874845	-5.070361038679446	0	0	0.04867302597924224	0.01751389082011194	0.006269879606120758	-0.1803258498012346	-0.2099923195210304	-0.5009169355397564	0.8658926216283783	46.66629837933473	0	0	0	-10.20626568665807	0	74.19229141157129	46.66629837933473	0	0
0.12	0.002773096210561384	-0.01069038504244034	-87.66802755320005	0	0.9399999999999999	0	43.70573390322725	-10.2618109839901	0	56.63109768370832	0.9883991135992445	-5.059606318521777	0	0	43.70573390322725	-10.2618109839901	0	56.63109768370832	0.9883991135992445	-5.059606318521777	0	0	-0.01472717625799901	-0.001288795598535423	-0.004735810853898355	-0.1347914279051955	-0.2036008147262908	-0.4968188620038325	0.8638670803778951	46.49796107937944	0	0	0	-10.30669476923169	0	74.22452025523194	46.49796107937944	0	0
0.13	-0.002580981165053121	0.006701636163442285	-87.67453132060898	0	0.9399999999999999	0	43.7344646086197	-10.24373934653835	0	56.69036164243571	0.9894334648068035	-5.054482974684213	0	0	43.7344646086197	-10.24373934653835	0	56.69036164243571	0.9894334648068035	-5.054482974684213	0	0	0.01104399987612942	0.004964483080287577	-0.003665658458351252	-0.2967844773141133	-0.2376641482588504	-0.4954099206555175	1.172002495546071	46.41336279574134	0	0	0	-10.36133629503477	0	74.24173575485548	46.41336279574134	0	0
0.14	-0.01104938235258293	0.002168702353550372	-87.6761383966068	0	0.9399999999999999	0	43.74321683618935	-10.23843482075461	0	56.70871623883091	0.9897538129467743	-5.052986997560764	0	0	43.74321683618935	-10.23843482075461	0	56.70871623883091	0.9897538129467743	-5.052986997560764	0	0	-0.004360711025357533	0.00868601563897824	-0.02280953242984646	-0.1445463326621634	-0.2015943552510767	-0.4640095021916966	0.8868382260263162	46.38838230511671	0	0	0	-10.3783100188126	0	74.24698019057286	46.38838230511671	0	0
0.15	-0.001682108415768328	0.002586145280117398	-87.68395170278428	0	0.9399999999999999	0	43.77411198427437	-10.22030166997941	0	56.77285851706714	0.9908733068917268	-5.047981398933809	0	0	43.77411198427437	-10.22030166997941	0	56.77285851706714	0.9908733068917268	-5.047981398933809	0	0	0.01069553091244128	0.001694236025631722	0.002614628220093922	-0.1518720809893506	-0.2028914803919958	-0.4911489251457505	0.8543678326470815	46.30186112339651	0	0	0	-10.43794068096836	0	74.26549290494007	46.30186112339651	0	0
0.16	0.0003143596913465591	-0.00441147274626486	-87.67625802615005	0	0.9399999999999999	0	43.80129329587902	-10.20507282048282	0	56.82955130033181	0.9918627826218149	-5.043847748022562	0	0	43.80129329587902	-10.20507282048282	0	56.82955130033181	0.9918627826218149	-5.043847748022562	0	0	-0.005724053070864288	-0.001137011712777497	0.0008346236004134943	-0.0999687369607966	-0.1917656346623712	-0.4947884192531763	0.780420300397286	46.22828780037534	0	0	0	-10.49094838470914	0	74.28178040682091	46.22828780037534	0	0
0.17	2.088704810154089e-05	-0.001570760270987382	-87.6775374088356	0	0.9399999999999999	0	43.82942239478551	-10.19018937136952	0	56.88854390444183	0.9928923977978603	-5.039891222328494	0	0	43.82942239478551	-10.19018937136952	0	56.88854390444183	0.9928923977978603	-5.039891222328494	0	0	-0.00470402417035464	0.003460050230687891	0.001282968203291864	-0.1369288987923039	-0.2060006246238628	-0.4937779990038518	0.8620834871232245	46.15527150576015	0	0	0	-10.54652158860445	0	74.29863602574214	46.15527150576015	0	0
0.18	0.0001665064871173837	-0.01605921485223664	-87.67318317781844	0	0.9399999999999999	0	43.85515556193602	-10.17656056401725	0	56.94261504816551	0.9938361172861576	-5.036281673730028	0	0	43.85515556193602	-10.17656056401725	0	56.94261504816551	0.9938361172861576	-5.036281673730028	0	0	-0.03037686984720974	0.001123345528546847	-0.006133521310084657	-0.1380975832845661	-0.2038620856036555	-0.4938955106030101	0.8849273540035349	46.08830318684424	0	0	0	-10.59712988040814	0	74.31405589767864	46.08830318684424	0	0
0.19	0.007744374200731392	-0.001664933406303464	-87.67714098675113	0	0.9399999999999999	0	43.88243181030018	-10.16339856130802	0	57.00032968946299	0.9948434278034061	-5.032910149498949	0	0	43.88243181030018	-10.16339856130802	0	57.00032968946299	0.9948434278034061	-5.032910149498949	0	0	0.003958405473778031	0.0007777250712142275	0.0005965994386482394	-0.302066020858427	-0.2448719938106166	-0.4984995958169723	1.17430184094546	46.0220171879882	0	0	0	-10.65198522408119	0	74.33040073309384	46.0220171879882	0	0
0.2	-0.007661892500518123	0.02044652386388759	-87.68000590900913	0	0.9399999999999999	0	43.88270477251562	-10.16325882736572	0	57.00090500757742	0.9948534689987494	-5.032873422114524	0	0	43.88270477251562	-10.16325882736572	0	57.00090500757742	0.9948534689987494	-5.032873422114524	0	0	0.02196590224933996	0.007726034975695875	0.009149427870475669	-0.2369239031869166	-0.0585297192628108	-0.01280772980162882	0.4898641735530636	46.02132576515992	0	0	0	-10.65252897162073	0	74.33056429946545	46.02132576515992	0	0
0.21	-0.004448683852047559	0.007615714280506984	-87.694759920126	0	0.9399999999999999	0	43.93233782192495	-10.14322551355726	0	57.10757317143631	0.9967151796651437	-5.028070765804633	0	0	43.93233782192495	-10.14322551355726	0	57.10757317143631	0.9967151796651437	-5.028070765804633	0	0	0.01477258888740902	0.002025405089453636	0.003847009518911731	-0.2447386156746138	-0.05824756762528986	0.01473423619387132	0.4897670754462445	45.9154338424761	0	0	0	-10.75640448657321	0	74.3603070312746	45.9154338424761	0	0
0.22	0.0002006852804210283	0.003283291255620973	-87.66888105101548	0	0.9399999999999999	0	43.9537911162605	-10.13455691507144	0	57.15375010889233	0.9975211192622389	-5.025977072630994	0	0	43.9537911162605	-10.13455691507144	0	57.15375010889233	0.9975211192622389	-5.025977072630994	0	0	-0.002108600809383002	-0.0009146142402813316	-0.00188324129559848	-0.4356419609500746	-0.1035586843201668	-0.01870471984758278	0.9124266585054295	45.86975011440117	0	0	0	-10.80145801533219	0	74.37316297471921	45.86975011440117	0	0
0.23	-0.00189310710146127	0.01588895170330169	-87.67438405337771	0	0.9399999999999999	0	43.98242343934372	-10.12315572877998	0	57.21562383077364	0.9986010194295308	-5.023242796470303	0	0	43.98242343934372	-10.12315572877998	0	57.21562383077364	0.9986010194295308	-5.023242796470303	0	0	0.03821586972733847	0.0008023638493122573	0.003592438355348758	-0.2658723828167773	-0.06094080191724871	-0.01350225376047418	0.4968512689207796	45.80939053095862	0	0	0	-10.86175432583186	0	74.39032099464148	45.80939053095862	0	0
0.24	-0.003512298936718328	-0.0006673841137852083	-87.67847930761806	0	0.9399999999999999	0	44.01003097744999	-10.11306060698744	0	57.27560507680214	0.9996478896621771	-5.020892768934536	0	0	44.01003097744999	-10.11306060698744	0	57.27560507680214	0.9996478896621771	-5.020892768934536	0	0	-0.02203038662790509	-0.004925531799018233	-0.0006429046238658201	-0.2113499858597775	-0.04717222832459494	-0.0002619779271412768	0.4952204872295765	45.75472988689834	0	0	0	-10.92102474363194	0	74.40686512353076	45.75472988689834	0	0
